<?xml version="1.0" encoding="UTF-8" standalone="no"?>
<!-- Created with Inkscape (http://www.inkscape.org/) -->

<svg
   height="1000"
   width="1000"
   sodipodi:docname="drawing.svg"
   version="1.1"
   id="svg2733"
   viewBox="0 0 1000 1000"
   inkscape:version="1.1.2 (0a00cf5339, 2022-02-04)"
   xmlns:inkscape="http://www.inkscape.org/namespaces/inkscape"
   xmlns:sodipodi="http://sodipodi.sourceforge.net/DTD/sodipodi-0.dtd"
   xmlns="http://www.w3.org/2000/svg"
   xmlns:svg="http://www.w3.org/2000/svg"
   xmlns:rdf="http://www.w3.org/1999/02/22-rdf-syntax-ns#"
   xmlns:cc="http://creativecommons.org/ns#"
   xmlns:dc="http://purl.org/dc/elements/1.1/">
  <sodipodi:namedview
     id="base"
     pagecolor="#ffffff"
     bordercolor="#666666"
     borderopacity="1.0"
     inkscape:pageopacity="0.0"
     inkscape:pageshadow="2"
     inkscape:zoom="0.25"
     inkscape:cx="234"
     inkscape:cy="824"
     inkscape:document-units="px"
     inkscape:current-layer="layer1"
     showgrid="false"
     showguides="true"
     inkscape:window-width="1920"
     inkscape:window-height="1011"
     inkscape:window-x="0"
     inkscape:window-y="32"
     inkscape:window-maximized="1"
     showborder="true"
     inkscape:showpageshadow="false"
     inkscape:pagecheckerboard="0">
    <sodipodi:guide
       id="guide_baseline"
       inkscape:label="baseline"
       position="0,253"
       orientation="0,1" />
    <sodipodi:guide
       id="guide_ascender"
       inkscape:label="ascender"
       position="0,945"
       orientation="0,1" />
    <sodipodi:guide
       id="guide_caps"
       inkscape:label="caps"
       position="0,896"
       orientation="0,1" />
    <sodipodi:guide
       id="guide_xheight"
       inkscape:label="xheight"
       position="0,729"
       orientation="0,1" />
    <sodipodi:guide
       id="guide_descender"
       inkscape:label="descender"
       position="0,28"
       orientation="0,1" />
  </sodipodi:namedview>
  <defs
     id="defs4">
    <rect
       x="107.1427"
       y="372.19434"
       width="506.0426"
       height="237.07275"
       id="rect21748" />
    <rect
       x="0"
       y="747"
       width="1000.5958"
       height="743.89343"
       id="rect17798" />
    <inkscape:perspective
       sodipodi:type="inkscape:persp3d"
       inkscape:vp_x="0 : 320 : 1"
       inkscape:vp_y="0 : 1000 : 0"
       inkscape:vp_z="480 : 320 : 1"
       inkscape:persp3d-origin="240 : 213.33333 : 1"
       id="perspective67" />
    <inkscape:perspective
       id="perspective6786"
       inkscape:persp3d-origin="0.5 : 0.33333333 : 1"
       inkscape:vp_z="1 : 0.5 : 1"
       inkscape:vp_y="0 : 1000 : 0"
       inkscape:vp_x="0 : 0.5 : 1"
       sodipodi:type="inkscape:persp3d" />
    <inkscape:perspective
       id="perspective2968"
       inkscape:persp3d-origin="0.5 : 0.33333333 : 1"
       inkscape:vp_z="1 : 0.5 : 1"
       inkscape:vp_y="0 : 1000 : 0"
       inkscape:vp_x="0 : 0.5 : 1"
       sodipodi:type="inkscape:persp3d" />
    <inkscape:perspective
       id="perspective2996"
       inkscape:persp3d-origin="0.5 : 0.33333333 : 1"
       inkscape:vp_z="1 : 0.5 : 1"
       inkscape:vp_y="0 : 1000 : 0"
       inkscape:vp_x="0 : 0.5 : 1"
       sodipodi:type="inkscape:persp3d" />
    <inkscape:perspective
       id="perspective3800"
       inkscape:persp3d-origin="0.5 : 0.33333333 : 1"
       inkscape:vp_z="1 : 0.5 : 1"
       inkscape:vp_y="0 : 1000 : 0"
       inkscape:vp_x="0 : 0.5 : 1"
       sodipodi:type="inkscape:persp3d" />
    <inkscape:perspective
       id="perspective3822"
       inkscape:persp3d-origin="0.5 : 0.33333333 : 1"
       inkscape:vp_z="1 : 0.5 : 1"
       inkscape:vp_y="0 : 1000 : 0"
       inkscape:vp_x="0 : 0.5 : 1"
       sodipodi:type="inkscape:persp3d" />
    <inkscape:perspective
       id="perspective3844"
       inkscape:persp3d-origin="0.5 : 0.33333333 : 1"
       inkscape:vp_z="1 : 0.5 : 1"
       inkscape:vp_y="0 : 1000 : 0"
       inkscape:vp_x="0 : 0.5 : 1"
       sodipodi:type="inkscape:persp3d" />
    <inkscape:perspective
       id="perspective3866"
       inkscape:persp3d-origin="0.5 : 0.33333333 : 1"
       inkscape:vp_z="1 : 0.5 : 1"
       inkscape:vp_y="0 : 1000 : 0"
       inkscape:vp_x="0 : 0.5 : 1"
       sodipodi:type="inkscape:persp3d" />
    <inkscape:perspective
       id="perspective3888"
       inkscape:persp3d-origin="0.5 : 0.33333333 : 1"
       inkscape:vp_z="1 : 0.5 : 1"
       inkscape:vp_y="0 : 1000 : 0"
       inkscape:vp_x="0 : 0.5 : 1"
       sodipodi:type="inkscape:persp3d" />
    <inkscape:perspective
       id="perspective6805"
       inkscape:persp3d-origin="0.5 : 0.33333333 : 1"
       inkscape:vp_z="1 : 0.5 : 1"
       inkscape:vp_y="0 : 1000 : 0"
       inkscape:vp_x="0 : 0.5 : 1"
       sodipodi:type="inkscape:persp3d" />
  </defs>
  <metadata
     id="metadata7">
    <rdf:RDF>
      <cc:Work
         rdf:about="">
        <dc:format>image/svg+xml</dc:format>
        <dc:type
           rdf:resource="http://purl.org/dc/dcmitype/StillImage" />
      </cc:Work>
    </rdf:RDF>
  </metadata>
  <g
     id="layer1"
     inkscape:groupmode="layer"
     inkscape:label="Layer 1">
    <rect
       style="opacity:1;fill:#b3b3b3;stroke:none;stroke-width:10.071"
       id="rect28407"
       width="1000"
       height="747"
       x="0"
       y="0" />
    <text
       xml:space="preserve"
       style="font-style:normal;font-weight:normal;font-size:887.84px;line-height:1.25;font-family:sans-serif;fill:#ff7f2a;fill-opacity:1;stroke:none;stroke-width:22.196"
       x="-867.27423"
       y="747.00012"
       id="text30605"><tspan
         sodipodi:role="line"
         id="tspan30603"
         x="-867.27423"
         y="747.00012"
         style="font-style:normal;font-variant:normal;font-weight:normal;font-stretch:normal;font-family:'Fira Mono';-inkscape-font-specification:'Fira Mono';fill:#ff7f2a;stroke-width:22.196">Linux</tspan></text>
    <rect
       style="opacity:1;fill:#a02c2c;stroke:none;stroke-width:11.461"
       id="rect28565"
       width="1000"
       height="253"
       x="0"
       y="747" />
    <g
       id="g28096">
      <g
         transform="matrix(2.3958284,0,0,2.0664304,-34.010109,-390.01687)"
         style="color:#000000;font-style:normal;font-variant:normal;font-weight:normal;font-stretch:normal;font-size:57.9019px;line-height:125%;font-family:'Skyscraper SF';-inkscape-font-specification:'Skyscraper SF';text-indent:0;text-align:start;text-decoration:none;text-decoration-line:none;letter-spacing:normal;word-spacing:normal;text-transform:none;writing-mode:lr-tb;direction:ltr;text-anchor:start;display:inline;overflow:visible;visibility:visible;fill:#000000;fill-opacity:1;fill-rule:nonzero;stroke:none;marker:none;enable-background:accumulate"
         id="text2954">
        <path
           d="m 115.1817,608.31879 h -4.05313 v -31.55656 h 4.05313 v 1.56335 c 0.1158,-0.19298 0.27021,-0.36668 0.46322,-0.52112 0.193,-0.15437 0.38601,-0.28948 0.57902,-0.40531 0.2316,-0.15438 0.52111,-0.30878 0.86853,-0.46322 0.386,-0.19297 0.81062,-0.32808 1.27384,-0.40531 0.46321,-0.0772 0.90712,-0.11577 1.33175,-0.1158 2.31606,3e-5 3.4741,1.31247 3.47411,3.93733 v 5.32698 h -4.05313 v -5.55859 h -3.93734 v 28.19825"
           style="marker:none"
           id="path5256" />
        <path
           d="m 130.52029,608.49249 c -0.54042,0.11581 -1.02294,0.17371 -1.44755,0.17371 -2.27748,0 -3.41621,-1.31244 -3.41621,-3.93733 v -27.96664 h 4.05313 v 28.19824 h 3.93734 v -28.19824 h 4.05313 v 31.55656 H 133.647 v -1.50545 l -0.92644,0.81062 c -0.69483,0.46322 -1.42825,0.75273 -2.20027,0.86853"
           style="marker:none"
           id="path5258" />
        <path
           d="m 145.26357,608.31879 h -4.05313 v -31.55656 h 4.05313 v 1.56335 c 0.1158,-0.19298 0.2702,-0.36668 0.46322,-0.52112 0.193,-0.15437 0.386,-0.28948 0.57902,-0.40531 0.2316,-0.15438 0.52111,-0.30878 0.86853,-0.46322 0.386,-0.19297 0.81061,-0.32808 1.27384,-0.40531 0.4632,-0.0772 0.90712,-0.11577 1.33174,-0.1158 2.31607,3e-5 3.47411,1.31247 3.47412,3.93733 v 27.96664 h -4.05314 v -28.19825 h -3.93733 v 28.19825"
           style="marker:none"
           id="path5260" />
        <path
           d="m 167.84624,580.29425 h -3.41622 v -3.53202 h 3.41622 v -7.93257 c -1e-5,-2.39324 0.42461,-4.01449 1.27384,-4.86376 0.84922,-0.84919 2.43187,-1.2738 4.74796,-1.27384 2.20026,4e-5 3.70571,0.42465 4.51635,1.27384 0.81061,0.84927 1.21593,2.47052 1.21594,4.86376 v 4.45845 h -3.76363 v -6.94823 h -3.99523 v 10.42235 h 3.99523 v 3.53202 h -3.99523 v 28.02454 h -3.99523 v -28.02454"
           style="marker:none"
           id="path5262" />
        <path
           d="m 182.357,608.31879 h -4.05313 v -31.55656 h 4.05313 v 1.56335 c 0.1158,-0.19298 0.27021,-0.36668 0.46322,-0.52112 0.193,-0.15437 0.38601,-0.28948 0.57902,-0.40531 0.2316,-0.15438 0.52111,-0.30878 0.86853,-0.46322 0.386,-0.19297 0.81062,-0.32808 1.27384,-0.40531 0.46321,-0.0772 0.90712,-0.11577 1.33175,-0.1158 2.31606,3e-5 3.4741,1.31247 3.47411,3.93733 v 5.32698 h -4.05313 v -5.55859 H 182.357 v 28.19825"
           style="marker:none"
           id="path5264" />
        <path
           d="m 198.91153,608.6083 c -2.27748,0 -3.86013,-0.38602 -4.74795,-1.15804 -0.88784,-0.77203 -1.33175,-2.14237 -1.33175,-4.11104 v -21.71323 c 0,-2.97227 0.84923,-4.59352 2.54769,-4.86376 1.69845,-0.27018 3.01089,-0.40528 3.93733,-0.40532 1.96865,4e-5 3.3776,0.44395 4.22684,1.33175 0.88782,0.84926 1.33173,2.2003 1.33175,4.05313 v 11.46459 h -7.99047 v 11.75409 h 3.93733 v -7.29564 h 4.05314 v 5.79019 c -2e-5,1.85287 -0.46323,3.18461 -1.38965,3.99524 -0.88784,0.77202 -2.41259,1.15804 -4.57426,1.15804 m -2.02656,-18.93394 h 3.93733 v -9.55382 h -3.93733 v 9.55382"
           style="marker:none"
           id="path5266" />
        <path
           d="m 214.06556,608.6083 c -2.27748,0 -3.86014,-0.38602 -4.74796,-1.15804 -0.88783,-0.77203 -1.33175,-2.14237 -1.33175,-4.11104 v -21.71323 c 0,-2.97227 0.84923,-4.59352 2.54769,-4.86376 1.69845,-0.27018 3.01089,-0.40528 3.93733,-0.40532 1.96866,4e-5 3.3776,0.44395 4.22684,1.33175 0.88782,0.84926 1.33173,2.2003 1.33175,4.05313 v 11.46459 h -7.99047 v 11.75409 h 3.93733 v -7.29564 h 4.05314 v 5.79019 c -2e-5,1.85287 -0.46323,3.18461 -1.38965,3.99524 -0.88784,0.77202 -2.41259,1.15804 -4.57425,1.15804 m -2.02657,-18.93394 h 3.93733 v -9.55382 h -3.93733 v 9.55382"
           style="marker:none"
           id="path5268" />
      </g>
      <g
         transform="matrix(2.3958284,0,0,2.0664304,-34.010109,-390.01687)"
         style="color:#000000;font-style:normal;font-variant:normal;font-weight:normal;font-stretch:normal;font-size:57.9019px;line-height:125%;font-family:'Skyscraper SF';-inkscape-font-specification:'Skyscraper SF';text-indent:0;text-align:start;text-decoration:none;text-decoration-line:none;letter-spacing:normal;word-spacing:normal;text-transform:none;writing-mode:lr-tb;direction:ltr;text-anchor:start;display:inline;overflow:visible;visibility:visible;fill:#000000;fill-opacity:1;fill-rule:nonzero;stroke:none;marker:none;enable-background:accumulate"
         id="text2954-6">
        <path
           d="m 245.16684,608.31879 h -4.05313 v -31.55656 h 4.05313 v 1.56335 c 0.1158,-0.19298 0.27021,-0.36668 0.46322,-0.52112 0.193,-0.15437 0.386,-0.28948 0.57902,-0.40531 0.2316,-0.15438 0.52111,-0.30878 0.86853,-0.46322 0.386,-0.19297 0.81062,-0.32808 1.27384,-0.40531 0.46321,-0.0772 0.90712,-0.11577 1.33174,-0.1158 2.31607,3e-5 3.47411,1.31247 3.47412,3.93733 v 5.32698 h -4.05314 v -5.55859 h -3.93733 v 28.19825"
           style="marker:none"
           id="path5243" />
        <path
           d="m 260.50543,608.49249 c -0.54043,0.11581 -1.02294,0.17371 -1.44755,0.17371 -2.27748,0 -3.41622,-1.31244 -3.41621,-3.93733 v -27.96664 h 4.05313 v 28.19824 h 3.93733 v -28.19824 h 4.05314 v 31.55656 h -4.05314 v -1.50545 l -0.92643,0.81062 c -0.69483,0.46322 -1.42825,0.75273 -2.20027,0.86853"
           style="marker:none"
           id="path5245" />
        <path
           d="m 275.24871,608.31879 h -4.05314 v -31.55656 h 4.05314 v 1.56335 c 0.1158,-0.19298 0.2702,-0.36668 0.46322,-0.52112 0.193,-0.15437 0.386,-0.28948 0.57901,-0.40531 0.23161,-0.15438 0.52111,-0.30878 0.86853,-0.46322 0.38601,-0.19297 0.81062,-0.32808 1.27385,-0.40531 0.4632,-0.0772 0.90712,-0.11577 1.33174,-0.1158 2.31607,3e-5 3.4741,1.31247 3.47412,3.93733 v 27.96664 h -4.05314 v -28.19825 h -3.93733 v 28.19825"
           style="marker:none"
           id="path5247" />
        <path
           d="m 301.6529,608.6083 c -2.54769,0 -4.26544,-0.46322 -5.15327,-1.38965 -0.84923,-0.96503 -1.27384,-2.81789 -1.27384,-5.55859 l 0.0579,-33.29361 c 0,-1.96863 0.46321,-3.41618 1.38965,-4.34265 0.92642,-0.92639 2.45117,-1.3896 4.57425,-1.38965 0.46321,5e-5 0.82992,5e-5 1.10014,0 0.3088,5e-5 1.35103,0.15445 3.1267,0.46322 1.77565,0.27025 2.66348,1.98801 2.66349,5.15327 v 7.64306 h -4.28474 v -9.55382 h -4.34265 v 38.62059 h 4.34265 v -19.39715 h -2.14238 v -3.47411 h 6.42712 v 20.9026 c -1e-5,2.08447 -0.48253,3.55132 -1.44755,4.40055 -0.92644,0.81062 -2.6056,1.21594 -5.03747,1.21594"
           style="marker:none"
           id="path5249" />
        <path
           d="m 315.68236,608.31879 h -4.28474 v -39.95234 c -1e-5,-1.96863 0.46321,-3.41618 1.38964,-4.34265 0.92643,-0.92639 2.47048,-1.3896 4.63216,-1.38965 0.54041,5e-5 1.10013,5e-5 1.67915,0 0.54041,0.11585 1.54405,0.28956 3.01091,0.52112 1.46683,0.23165 2.20026,1.93011 2.20027,5.09537 v 40.06815 h -4.28474 v -41.97891 h -4.34265 v 41.97891"
           style="marker:none"
           id="path5251" />
        <path
           d="m 331.62258,608.43459 c -2.74069,-0.34741 -4.11104,-2.12307 -4.11104,-5.32698 l 0.0579,-40.12604 h 4.28474 v 41.9789 h 4.28474 v -41.9789 h 4.28475 v 40.01024 c -2e-5,1.89146 -0.46323,3.31971 -1.38965,4.28474 -0.92644,0.96503 -2.39329,1.44755 -4.40055,1.44755 -0.50182,0 -0.92644,-0.0193 -1.27384,-0.0579 -0.34742,-0.0386 -0.92644,-0.11581 -1.73706,-0.23161"
           style="marker:none"
           id="path5253" />
      </g>
      <g
         id="g3911"
         transform="matrix(2.8699596,0,0,2.8699596,-703.95819,-534.65758)">
        <path
           transform="translate(-5.7220459e-6,160.64541)"
           style="color:#000000;display:inline;overflow:visible;visibility:visible;fill:#000000;fill-opacity:1;fill-rule:nonzero;stroke:none;stroke-width:1px;marker:none;enable-background:accumulate"
           d="m 371.74468,347.04965 c 0,2.13864 -1.66146,3.87234 -3.71099,3.87234 -2.04952,0 -3.71099,-1.7337 -3.71099,-3.87234 0,-2.13863 1.66147,-3.87234 3.71099,-3.87234 2.04953,0 3.71099,1.73371 3.71099,3.87234 z"
           id="path3790" />
        <path
           transform="matrix(1.2582418,0,0,1.2582418,-84.335059,71.022681)"
           style="color:#000000;display:inline;overflow:visible;visibility:visible;fill:#000000;fill-opacity:1;fill-rule:nonzero;stroke:none;stroke-width:1px;marker:none;enable-background:accumulate"
           d="m 371.74468,347.04965 c 0,2.13864 -1.66146,3.87234 -3.71099,3.87234 -2.04952,0 -3.71099,-1.7337 -3.71099,-3.87234 0,-2.13863 1.66147,-3.87234 3.71099,-3.87234 2.04953,0 3.71099,1.73371 3.71099,3.87234 z"
           id="path3790-1" />
        <path
           transform="matrix(1.5164836,0,0,1.5164836,-166.75346,-18.600046)"
           style="color:#000000;display:inline;overflow:visible;visibility:visible;fill:#000000;fill-opacity:1;fill-rule:nonzero;stroke:none;stroke-width:1px;marker:none;enable-background:accumulate"
           d="m 371.74468,347.04965 c 0,2.13864 -1.66146,3.87234 -3.71099,3.87234 -2.04952,0 -3.71099,-1.7337 -3.71099,-3.87234 0,-2.13863 1.66147,-3.87234 3.71099,-3.87234 2.04953,0 3.71099,1.73371 3.71099,3.87234 z"
           id="path3790-1-8" />
        <path
           transform="matrix(1.7747254,0,0,1.7747254,-247.25521,-108.22277)"
           style="color:#000000;display:inline;overflow:visible;visibility:visible;fill:#000000;fill-opacity:1;fill-rule:nonzero;stroke:none;stroke-width:1px;marker:none;enable-background:accumulate"
           d="m 371.74468,347.04965 c 0,2.13864 -1.66146,3.87234 -3.71099,3.87234 -2.04952,0 -3.71099,-1.7337 -3.71099,-3.87234 0,-2.13863 1.66147,-3.87234 3.71099,-3.87234 2.04953,0 3.71099,1.73371 3.71099,3.87234 z"
           id="path3790-1-8-7" />
        <path
           transform="matrix(2.0329672,0,0,2.0329672,-325.84027,-197.8455)"
           style="color:#000000;display:inline;overflow:visible;visibility:visible;fill:#000000;fill-opacity:1;fill-rule:nonzero;stroke:none;stroke-width:1px;marker:none;enable-background:accumulate"
           d="m 371.74468,347.04965 c 0,2.13864 -1.66146,3.87234 -3.71099,3.87234 -2.04952,0 -3.71099,-1.7337 -3.71099,-3.87234 0,-2.13863 1.66147,-3.87234 3.71099,-3.87234 2.04953,0 3.71099,1.73371 3.71099,3.87234 z"
           id="path3790-1-8-7-9" />
        <path
           transform="matrix(-1,0,0,1,844.72031,160.64541)"
           style="color:#000000;display:inline;overflow:visible;visibility:visible;fill:#000000;fill-opacity:1;fill-rule:nonzero;stroke:none;stroke-width:1px;marker:none;enable-background:accumulate"
           d="m 371.74468,347.04965 c 0,2.13864 -1.66146,3.87234 -3.71099,3.87234 -2.04952,0 -3.71099,-1.7337 -3.71099,-3.87234 0,-2.13863 1.66147,-3.87234 3.71099,-3.87234 2.04953,0 3.71099,1.73371 3.71099,3.87234 z"
           id="path3790-2" />
        <path
           transform="matrix(-1.2582418,0,0,1.2582418,929.05537,71.022681)"
           style="color:#000000;display:inline;overflow:visible;visibility:visible;fill:#000000;fill-opacity:1;fill-rule:nonzero;stroke:none;stroke-width:1px;marker:none;enable-background:accumulate"
           d="m 371.74468,347.04965 c 0,2.13864 -1.66146,3.87234 -3.71099,3.87234 -2.04952,0 -3.71099,-1.7337 -3.71099,-3.87234 0,-2.13863 1.66147,-3.87234 3.71099,-3.87234 2.04953,0 3.71099,1.73371 3.71099,3.87234 z"
           id="path3790-1-0" />
        <path
           transform="matrix(-1.5164836,0,0,1.5164836,1011.4738,-18.600046)"
           style="color:#000000;display:inline;overflow:visible;visibility:visible;fill:#000000;fill-opacity:1;fill-rule:nonzero;stroke:none;stroke-width:1px;marker:none;enable-background:accumulate"
           d="m 371.74468,347.04965 c 0,2.13864 -1.66146,3.87234 -3.71099,3.87234 -2.04952,0 -3.71099,-1.7337 -3.71099,-3.87234 0,-2.13863 1.66147,-3.87234 3.71099,-3.87234 2.04953,0 3.71099,1.73371 3.71099,3.87234 z"
           id="path3790-1-8-2" />
        <path
           transform="matrix(-1.7747254,0,0,1.7747254,1091.9755,-108.22277)"
           style="color:#000000;display:inline;overflow:visible;visibility:visible;fill:#000000;fill-opacity:1;fill-rule:nonzero;stroke:none;stroke-width:1px;marker:none;enable-background:accumulate"
           d="m 371.74468,347.04965 c 0,2.13864 -1.66146,3.87234 -3.71099,3.87234 -2.04952,0 -3.71099,-1.7337 -3.71099,-3.87234 0,-2.13863 1.66147,-3.87234 3.71099,-3.87234 2.04953,0 3.71099,1.73371 3.71099,3.87234 z"
           id="path3790-1-8-7-3" />
      </g>
    </g>
    <rect
       style="opacity:1;fill:#ff00ff;stroke:none;stroke-width:9.74799"
       id="rect28849"
       width="1000"
       height="167"
       x="0"
       y="104" />
    <g
       id="g28103">
      <path
         d="m 304.85818,743.09585 c -29.64106,0 -49.62625,-4.03478 -59.95565,-12.10434 -9.88036,-8.40576 -14.82052,-24.54485 -14.8205,-48.41731 l 0.67366,-289.99953 c -10e-6,-17.14744 5.38925,-29.7561 16.16781,-37.82603 10.7785,-8.06915 28.51818,-12.10392 53.21907,-12.10433 5.38918,4.1e-4 9.65568,4.1e-4 12.79952,0 3.59275,4.1e-4 15.71859,1.34532 36.3776,4.03477 20.65871,2.35402 30.98814,17.3163 30.98831,44.88689 v 66.57381 h -49.85077 v -83.21725 h -50.52442 v 336.39945 h 50.52442 V 542.36574 H 305.53184 V 512.10491 H 380.308 v 182.06928 c -1.7e-4,18.15652 -5.614,30.9333 -16.84149,38.33037 -10.77869,7.06085 -30.31477,10.59129 -58.60833,10.59129"
         style="font-style:normal;font-variant:normal;font-weight:normal;font-stretch:normal;font-size:386.808px;line-height:125%;font-family:'Skyscraper SF';-inkscape-font-specification:'Skyscraper SF';text-align:start;writing-mode:lr-tb;text-anchor:start;fill:#000000;fill-opacity:1;stroke:none;stroke-width:1.50692"
         id="path3856" />
      <path
         d="M 468.08367,740.57411 H 418.23289 V 392.57467 c -2e-5,-17.14744 5.38925,-29.7561 16.16781,-37.82603 10.77851,-8.06915 28.74273,-12.10392 53.89273,-12.10433 6.28739,4.1e-4 12.79941,4.1e-4 19.53611,0 6.28736,1.00909 17.96412,2.52213 35.03027,4.53912 17.06586,2.01779 25.59888,16.81195 25.59903,44.38254 V 740.57411 H 518.60809 V 374.92253 h -50.52442 v 365.65158"
         style="font-style:normal;font-variant:normal;font-weight:normal;font-stretch:normal;font-size:386.808px;line-height:125%;font-family:'Skyscraper SF';-inkscape-font-specification:'Skyscraper SF';text-align:start;writing-mode:lr-tb;text-anchor:start;fill:#000000;fill-opacity:1;stroke:none;stroke-width:1.50692"
         id="path3858" />
      <path
         d="m 653.53988,741.5828 c -31.88656,-3.02607 -47.82981,-18.4927 -47.82979,-46.39993 l 0.67366,-349.51247 h 49.85076 v 365.65158 h 49.85077 V 345.6704 h 49.85077 v 348.50379 c -1.7e-4,16.47536 -5.38944,28.91591 -16.16782,37.32167 -10.77868,8.40578 -27.8447,12.60867 -51.19808,12.60867 -5.83848,0 -10.77864,-0.1681 -14.8205,-0.50433 -4.04204,-0.33624 -10.77862,-1.0087 -20.20977,-2.0174"
         style="font-style:normal;font-variant:normal;font-weight:normal;font-stretch:normal;font-size:386.808px;line-height:125%;font-family:'Skyscraper SF';-inkscape-font-specification:'Skyscraper SF';text-align:start;writing-mode:lr-tb;text-anchor:start;fill:#000000;fill-opacity:1;stroke:none;stroke-width:1.50692"
         id="path3860" />
      <path
         style="color:#000000;display:inline;overflow:visible;visibility:visible;fill:#000000;fill-opacity:1;fill-rule:nonzero;stroke:none;stroke-width:65.1937;marker:none;enable-background:accumulate"
         d="M 516.32146,295.53973 C 590.6864,117.32575 1190.0108,776.16689 930.18885,55.000003 1043.0141,642.02254 576.87561,-43.322543 516.32146,295.53973 Z"
         id="path3862-8"
         sodipodi:nodetypes="ccc" />
      <path
         style="color:#000000;display:inline;overflow:visible;visibility:visible;fill:#000000;fill-opacity:1;fill-rule:nonzero;stroke:none;stroke-width:65.1937;marker:none;enable-background:accumulate"
         d="M 483.6786,295.53973 C 409.31364,117.32575 -190.0108,776.16689 69.811177,55.000003 -43.014109,642.02254 423.12443,-43.322543 483.6786,295.53973 Z"
         id="path3862-8-9"
         sodipodi:nodetypes="ccc" />
    </g>
    <rect
       style="opacity:1;fill:#782121;stroke:none;stroke-width:14.7304"
       id="rect28705"
       width="1000"
       height="55"
       x="0"
       y="0" />
  </g>
</svg>
